# xmcd
#
# Track frame offsets:
#	150
#	25016
#	47327
#	80109
#	101433
#	115122
#	137797
#	157849
#	174968
#	192420
#	215756
#	231190
#	253591
#	276002
#	304376
#
# Disc length: 4336
#
# Revision: 1
# Processed by: cddbd v1.5.1PL0 Copyright (c) Steve Scherf et al.
# Submitted via: EasyCDDAExtractor 5.0.2.1
# Normalized: r0:TDELIM( - )
#
DISCID=c710ee0f
DTITLE=The Blues Hits - Volume 1
DYEAR=1900
DGENRE=Blues
TTITLE0=John Lee Hooker feat. Carlos Santana - The healer
TTITLE1=Long John Hunter - Troble on the line
TTITLE2=Albert King - I'll play the blues for you
TTITLE3=Lucky Peterson - Who's been talkin'?
TTITLE4=T-Bone Walker - That evening train
TTITLE5=Luther Allison - Serious
TTITLE6=The Notting Hillbillies - Your own sweet way
TTITLE7=The Jeff Healey Band - While my guitar gently weeps
TTITLE8=Ray Charles - Strong love affair
TTITLE9=The Santana Band - One with you
TTITLE10=B.B.King - Blues boys tune
TTITLE11=Stevie Ray Vaughan and The Double Trouble - Dirty pool
TTITLE12=Tony Joe White - Ain't going down this time
TTITLE13=Billy Boy Arnold and Tony Mcphee - Blue and  lonesome
TTITLE14=John Lee Hooker - Chil out (things gonna change)
EXTD=
EXTT0=
EXTT1=
EXTT2=
EXTT3=
EXTT4=
EXTT5=
EXTT6=
EXTT7=
EXTT8=
EXTT9=
EXTT10=
EXTT11=
EXTT12=
EXTT13=
EXTT14=
PLAYORDER=
